<svg width="193" height="37" viewBox="0 0 193 37" fill="none" xmlns="http://www.w3.org/2000/svg">
<path d="M19.428 20.16C21.2173 20.5413 22.6547 21.436 23.74 22.844C24.8253 24.2227 25.368 25.8067 25.368 27.596C25.368 30.1773 24.4587 32.2307 22.64 33.756C20.8507 35.252 18.3427 36 15.116 36H0.728V5.112H14.632C17.7707 5.112 20.22 5.83067 21.98 7.268C23.7693 8.70533 24.664 10.656 24.664 13.12C24.664 14.9387 24.18 16.4493 23.212 17.652C22.2733 18.8547 21.012 19.6907 19.428 20.16ZM8.252 17.608H13.18C14.412 17.608 15.3507 17.344 15.996 16.816C16.6707 16.2587 17.008 15.452 17.008 14.396C17.008 13.34 16.6707 12.5333 15.996 11.976C15.3507 11.4187 14.412 11.14 13.18 11.14H8.252V17.608ZM13.796 29.928C15.0573 29.928 16.0253 29.6493 16.7 29.092C17.404 28.5053 17.756 27.6693 17.756 26.584C17.756 25.4987 17.3893 24.648 16.656 24.032C15.952 23.416 14.9693 23.108 13.708 23.108H8.252V29.928H13.796ZM28.2359 23.68C28.2359 21.1573 28.7052 18.9427 29.6439 17.036C30.6119 15.1293 31.9172 13.6627 33.5599 12.636C35.2026 11.6093 37.0359 11.096 39.0599 11.096C40.7906 11.096 42.3012 11.448 43.5919 12.152C44.9119 12.856 45.9239 13.78 46.6279 14.924V11.448H54.1519V36H46.6279V32.524C45.8946 33.668 44.8679 34.592 43.5479 35.296C42.2572 36 40.7466 36.352 39.0159 36.352C37.0212 36.352 35.2026 35.8387 33.5599 34.812C31.9172 33.756 30.6119 32.2747 29.6439 30.368C28.7052 28.432 28.2359 26.2027 28.2359 23.68ZM46.6279 23.724C46.6279 21.8467 46.0999 20.3653 45.0439 19.28C44.0172 18.1947 42.7559 17.652 41.2599 17.652C39.7639 17.652 38.4879 18.1947 37.4319 19.28C36.4052 20.336 35.8919 21.8027 35.8919 23.68C35.8919 25.5573 36.4052 27.0533 37.4319 28.168C38.4879 29.2533 39.7639 29.796 41.2599 29.796C42.7559 29.796 44.0172 29.2533 45.0439 28.168C46.0999 27.0827 46.6279 25.6013 46.6279 23.724ZM74.5552 11.184C77.4299 11.184 79.7179 12.1227 81.4192 14C83.1499 15.848 84.0152 18.4 84.0152 21.656V36H76.5352V22.668C76.5352 21.0253 76.1099 19.7493 75.2592 18.84C74.4085 17.9307 73.2645 17.476 71.8272 17.476C70.3899 17.476 69.2459 17.9307 68.3952 18.84C67.5445 19.7493 67.1192 21.0253 67.1192 22.668V36H59.5952V11.448H67.1192V14.704C67.8819 13.6187 68.9085 12.768 70.1992 12.152C71.4899 11.5067 72.9419 11.184 74.5552 11.184ZM110.14 5.112C113.396 5.112 116.241 5.75733 118.676 7.048C121.111 8.33867 122.988 10.1573 124.308 12.504C125.657 14.8213 126.332 17.5053 126.332 20.556C126.332 23.5773 125.657 26.2613 124.308 28.608C122.988 30.9547 121.096 32.7733 118.632 34.064C116.197 35.3547 113.367 36 110.14 36H98.5678V5.112H110.14ZM109.656 29.488C112.501 29.488 114.716 28.7107 116.3 27.156C117.884 25.6013 118.676 23.4013 118.676 20.556C118.676 17.7107 117.884 15.496 116.3 13.912C114.716 12.328 112.501 11.536 109.656 11.536H106.092V29.488H109.656ZM134.321 8.896C133.001 8.896 131.915 8.51466 131.065 7.752C130.243 6.96 129.833 5.992 129.833 4.848C129.833 3.67467 130.243 2.70667 131.065 1.944C131.915 1.152 133.001 0.755997 134.321 0.755997C135.611 0.755997 136.667 1.152 137.489 1.944C138.339 2.70667 138.765 3.67467 138.765 4.848C138.765 5.992 138.339 6.96 137.489 7.752C136.667 8.51466 135.611 8.896 134.321 8.896ZM138.061 11.448V36H130.537V11.448H138.061ZM153.501 36.352C151.36 36.352 149.453 35.9853 147.781 35.252C146.109 34.5187 144.789 33.5213 143.821 32.26C142.853 30.9693 142.31 29.532 142.193 27.948H149.629C149.717 28.7987 150.113 29.488 150.817 30.016C151.521 30.544 152.386 30.808 153.413 30.808C154.352 30.808 155.07 30.632 155.569 30.28C156.097 29.8987 156.361 29.4147 156.361 28.828C156.361 28.124 155.994 27.6107 155.261 27.288C154.528 26.936 153.34 26.5547 151.697 26.144C149.937 25.7333 148.47 25.308 147.297 24.868C146.124 24.3987 145.112 23.68 144.261 22.712C143.41 21.7147 142.985 20.38 142.985 18.708C142.985 17.3 143.366 16.024 144.129 14.88C144.921 13.7067 146.065 12.7827 147.561 12.108C149.086 11.4333 150.89 11.096 152.973 11.096C156.053 11.096 158.473 11.8587 160.233 13.384C162.022 14.9093 163.049 16.9333 163.313 19.456H156.361C156.244 18.6053 155.862 17.9307 155.217 17.432C154.601 16.9333 153.78 16.684 152.753 16.684C151.873 16.684 151.198 16.86 150.729 17.212C150.26 17.5347 150.025 17.9893 150.025 18.576C150.025 19.28 150.392 19.808 151.125 20.16C151.888 20.512 153.061 20.864 154.645 21.216C156.464 21.6853 157.945 22.1547 159.089 22.624C160.233 23.064 161.23 23.7973 162.081 24.824C162.961 25.8213 163.416 27.1707 163.445 28.872C163.445 30.3093 163.034 31.6 162.213 32.744C161.421 33.8587 160.262 34.7387 158.737 35.384C157.241 36.0293 155.496 36.352 153.501 36.352ZM183.14 11.184C185.956 11.184 188.215 12.1227 189.916 14C191.618 15.848 192.468 18.4 192.468 21.656V36H184.988V22.668C184.988 21.0253 184.563 19.7493 183.712 18.84C182.862 17.9307 181.718 17.476 180.28 17.476C178.843 17.476 177.699 17.9307 176.848 18.84C175.998 19.7493 175.572 21.0253 175.572 22.668V36H168.048V3.44H175.572V14.748C176.335 13.6627 177.376 12.7973 178.696 12.152C180.016 11.5067 181.498 11.184 183.14 11.184Z" fill="#FFB800"/>
</svg>
